<mxfile host="Electron" agent="Mozilla/5.0 (Windows NT 10.0; Win64; x64) AppleWebKit/537.36 (KHTML, like Gecko) draw.io/26.2.2 Chrome/134.0.6998.178 Electron/35.1.2 Safari/537.36" version="26.2.2" pages="3">
  <diagram name="PÃ¡gina-1" id="3v4JH7CiTmIy5q_-C4Jn">
    <mxGraphModel dx="1044" dy="626" grid="1" gridSize="10" guides="1" tooltips="1" connect="1" arrows="1" fold="1" page="1" pageScale="1" pageWidth="827" pageHeight="1169" math="0" shadow="0">
      <root>
        <mxCell id="0" />
        <mxCell id="1" parent="0" />
        <mxCell id="LFEP62_ntlTdYPU8Oof--1" value="proto" style="shape=umlFrame;whiteSpace=wrap;html=1;pointerEvents=0;recursiveResize=0;container=1;collapsible=0;width=80;height=30;" vertex="1" parent="1">
          <mxGeometry x="80" y="40" width="800" height="480" as="geometry" />
        </mxCell>
        <mxCell id="LFEP62_ntlTdYPU8Oof--10" value="src" style="shape=umlFrame;whiteSpace=wrap;html=1;pointerEvents=0;recursiveResize=0;container=1;collapsible=0;width=60;height=30;" vertex="1" parent="LFEP62_ntlTdYPU8Oof--1">
          <mxGeometry x="40" y="70" width="340" height="320" as="geometry" />
        </mxCell>
        <mxCell id="LFEP62_ntlTdYPU8Oof--11" value="services" style="shape=umlFrame;whiteSpace=wrap;html=1;pointerEvents=0;recursiveResize=0;container=1;collapsible=0;width=70;height=30;" vertex="1" parent="LFEP62_ntlTdYPU8Oof--10">
          <mxGeometry x="40" y="50" width="260" height="180" as="geometry" />
        </mxCell>
        <mxCell id="LFEP62_ntlTdYPU8Oof--4" value="SERVICE_NAME_service" style="rounded=0;whiteSpace=wrap;html=1;" vertex="1" parent="LFEP62_ntlTdYPU8Oof--11">
          <mxGeometry x="40" y="50" width="160" height="40" as="geometry" />
        </mxCell>
        <mxCell id="LFEP62_ntlTdYPU8Oof--13" value="SERVICE_NAME_2_service" style="rounded=0;whiteSpace=wrap;html=1;" vertex="1" parent="LFEP62_ntlTdYPU8Oof--11">
          <mxGeometry x="40" y="120" width="160" height="40" as="geometry" />
        </mxCell>
        <mxCell id="LFEP62_ntlTdYPU8Oof--6" value="common" style="rounded=0;whiteSpace=wrap;html=1;" vertex="1" parent="LFEP62_ntlTdYPU8Oof--10">
          <mxGeometry x="50" y="260" width="80" height="40" as="geometry" />
        </mxCell>
        <mxCell id="LFEP62_ntlTdYPU8Oof--14" value="external" style="rounded=0;whiteSpace=wrap;html=1;" vertex="1" parent="LFEP62_ntlTdYPU8Oof--10">
          <mxGeometry x="200" y="260" width="80" height="40" as="geometry" />
        </mxCell>
        <mxCell id="LFEP62_ntlTdYPU8Oof--15" value="generated" style="shape=umlFrame;whiteSpace=wrap;html=1;pointerEvents=0;recursiveResize=0;container=1;collapsible=0;width=73;height=30;" vertex="1" parent="LFEP62_ntlTdYPU8Oof--1">
          <mxGeometry x="407" y="70" width="340" height="320" as="geometry" />
        </mxCell>
        <mxCell id="LFEP62_ntlTdYPU8Oof--16" value="services" style="shape=umlFrame;whiteSpace=wrap;html=1;pointerEvents=0;recursiveResize=0;container=1;collapsible=0;width=70;height=30;" vertex="1" parent="LFEP62_ntlTdYPU8Oof--15">
          <mxGeometry x="40" y="50" width="260" height="180" as="geometry" />
        </mxCell>
        <mxCell id="LFEP62_ntlTdYPU8Oof--17" value="SERVICE_NAME_service" style="rounded=0;whiteSpace=wrap;html=1;" vertex="1" parent="LFEP62_ntlTdYPU8Oof--16">
          <mxGeometry x="40" y="50" width="160" height="40" as="geometry" />
        </mxCell>
        <mxCell id="LFEP62_ntlTdYPU8Oof--18" value="SERVICE_NAME_2_service" style="rounded=0;whiteSpace=wrap;html=1;" vertex="1" parent="LFEP62_ntlTdYPU8Oof--16">
          <mxGeometry x="40" y="120" width="160" height="40" as="geometry" />
        </mxCell>
        <mxCell id="LFEP62_ntlTdYPU8Oof--19" value="common" style="rounded=0;whiteSpace=wrap;html=1;" vertex="1" parent="LFEP62_ntlTdYPU8Oof--15">
          <mxGeometry x="50" y="260" width="80" height="40" as="geometry" />
        </mxCell>
        <mxCell id="LFEP62_ntlTdYPU8Oof--20" value="external" style="rounded=0;whiteSpace=wrap;html=1;" vertex="1" parent="LFEP62_ntlTdYPU8Oof--15">
          <mxGeometry x="200" y="260" width="80" height="40" as="geometry" />
        </mxCell>
        <mxCell id="LFEP62_ntlTdYPU8Oof--23" value="build-proto.sh" style="rounded=0;whiteSpace=wrap;html=1;" vertex="1" parent="LFEP62_ntlTdYPU8Oof--1">
          <mxGeometry x="50" y="420" width="80" height="40" as="geometry" />
        </mxCell>
      </root>
    </mxGraphModel>
  </diagram>
  <diagram id="xEj50n1sZLa1Lk0ScF-H" name="Microservicios">
    <mxGraphModel dx="633" dy="1548" grid="1" gridSize="10" guides="1" tooltips="1" connect="1" arrows="1" fold="1" page="1" pageScale="1" pageWidth="827" pageHeight="1169" math="0" shadow="0">
      <root>
        <mxCell id="0" />
        <mxCell id="1" parent="0" />
        <mxCell id="SMvYBH-NGKMblJyvN_PE-4" value="application" style="shape=umlFrame;whiteSpace=wrap;html=1;pointerEvents=0;recursiveResize=0;container=1;collapsible=0;width=80;height=30;" vertex="1" parent="1">
          <mxGeometry x="280" y="-260" width="480" height="270" as="geometry" />
        </mxCell>
        <mxCell id="SMvYBH-NGKMblJyvN_PE-8" value="domain" style="shape=umlFrame;whiteSpace=wrap;html=1;pointerEvents=0;recursiveResize=0;container=1;collapsible=0;width=80;height=30;" vertex="1" parent="1">
          <mxGeometry x="300" y="300" width="340" height="180" as="geometry" />
        </mxCell>
        <mxCell id="SMvYBH-NGKMblJyvN_PE-9" value="infraestructure" style="shape=umlFrame;whiteSpace=wrap;html=1;pointerEvents=0;recursiveResize=0;container=1;collapsible=0;width=110;height=30;" vertex="1" parent="1">
          <mxGeometry x="280" y="520" width="340" height="180" as="geometry" />
        </mxCell>
        <mxCell id="SMvYBH-NGKMblJyvN_PE-10" value="app.module.ts" style="rounded=0;whiteSpace=wrap;html=1;" vertex="1" parent="1">
          <mxGeometry x="50" y="-200" width="120" height="40" as="geometry" />
        </mxCell>
        <mxCell id="SMvYBH-NGKMblJyvN_PE-12" value="NAME_MICROSERVICE.module.ts" style="rounded=0;whiteSpace=wrap;html=1;" vertex="1" parent="1">
          <mxGeometry x="60" y="440" width="220" height="40" as="geometry" />
        </mxCell>
        <mxCell id="SMvYBH-NGKMblJyvN_PE-13" value="main.ts" style="rounded=0;whiteSpace=wrap;html=1;" vertex="1" parent="1">
          <mxGeometry x="120" y="330" width="120" height="40" as="geometry" />
        </mxCell>
      </root>
    </mxGraphModel>
  </diagram>
  <diagram id="5Ql461Zxmx_5ZruVkNvu" name="Estructura de carpetas">
    <mxGraphModel dx="870" dy="522" grid="1" gridSize="10" guides="1" tooltips="1" connect="1" arrows="1" fold="1" page="1" pageScale="1" pageWidth="827" pageHeight="1169" math="0" shadow="0">
      <root>
        <mxCell id="0" />
        <mxCell id="1" parent="0" />
        <mxCell id="fbKDsYcmxCLl8ErTx-Sw-1" value="src" style="shape=umlFrame;whiteSpace=wrap;html=1;pointerEvents=0;recursiveResize=0;container=1;collapsible=0;width=80;height=30;" vertex="1" parent="1">
          <mxGeometry x="320" y="80" width="650" height="370" as="geometry" />
        </mxCell>
        <mxCell id="fbKDsYcmxCLl8ErTx-Sw-2" value="app.module.ts" style="rounded=0;whiteSpace=wrap;html=1;" vertex="1" parent="fbKDsYcmxCLl8ErTx-Sw-1">
          <mxGeometry x="20" y="50" width="120" height="40" as="geometry" />
        </mxCell>
        <mxCell id="fbKDsYcmxCLl8ErTx-Sw-3" value="main.ts" style="rounded=0;whiteSpace=wrap;html=1;" vertex="1" parent="fbKDsYcmxCLl8ErTx-Sw-1">
          <mxGeometry x="20" y="120" width="120" height="40" as="geometry" />
        </mxCell>
        <mxCell id="fbKDsYcmxCLl8ErTx-Sw-4" value="NAME_MICROSERVICE" style="shape=umlFrame;whiteSpace=wrap;html=1;pointerEvents=0;recursiveResize=0;container=1;collapsible=0;width=180;height=30;" vertex="1" parent="fbKDsYcmxCLl8ErTx-Sw-1">
          <mxGeometry x="230" y="140" width="320" height="160" as="geometry" />
        </mxCell>
        <mxCell id="fbKDsYcmxCLl8ErTx-Sw-9" value="app.module.ts" style="rounded=0;whiteSpace=wrap;html=1;" vertex="1" parent="fbKDsYcmxCLl8ErTx-Sw-4">
          <mxGeometry x="20" y="50" width="120" height="40" as="geometry" />
        </mxCell>
      </root>
    </mxGraphModel>
  </diagram>
</mxfile>
